<?xml version="1.0"?>
<svg xmlns="http://www.w3.org/2000/svg" xmlns:xlink="http://www.w3.org/1999/xlink" xmlns:svgjs="http://svgjs.com/svgjs" version="1.1" width="512" height="512" x="0" y="0" viewBox="0 0 480 480" style="enable-background:new 0 0 512 512" xml:space="preserve" class=""><g><path xmlns="http://www.w3.org/2000/svg" d="m471.996094 31.121094c-.46875 0-.941406.042968-1.402344.125l-38.808594 6.917968c-14.167968-27.265624-44.308594-42.285156-74.609375-37.175781l-52.734375 8.800781c-42.664062 7.128907-86.21875 7.128907-128.882812 0l-52.734375-8.800781c-30.300781-5.109375-60.441407 9.910157-74.609375 37.175781l-38.808594-6.917968c-4.347656-.777344-8.503906 2.117187-9.28125 6.464844-.0820312.464843-.125.9375-.125 1.40625v56c0 4.417968 3.582031 8 8 8 .503906 0 1.003906-.046876 1.496094-.144532l35.0625-6.664062c8.921875 23.738281 29.847656 40.902344 54.875 45.007812l52.566406 8.761719v105.039063c-.160156 38.621093 25.039062 72.769531 61.992188 84l-5.992188 131.640624c-.199219 4.414063 3.21875 8.152344 7.632812 8.351563.121094.007813.246094.007813.367188.007813h48c4.417969.003906 8.003906-3.574219 8.007812-7.992188 0-.121094-.003906-.246094-.007812-.367188l-5.992188-131.640624c36.953126-11.230469 62.152344-45.378907 61.992188-84v-105.039063l52.566406-8.800781c25.027344-4.105469 45.953125-21.269532 54.875-45.007813l35.0625 6.664063c.492188.109375.992188.171875 1.496094.183594 4.417969 0 8-3.582032 8-8v-56c-.003906-4.417969-3.585938-8-8.003906-7.996094zm-431.285156 49.636718-24.710938 4.695313v-36.800781l26.34375 4.707031c-1.53125 5.808594-2.320312 11.789063-2.34375 17.796875.023438 3.214844.261719 6.421875.710938 9.601562zm271.289062 174.359376c.144531 33.65625-23.183594 62.863281-56.039062 70.160156-3.777344.855468-6.398438 4.292968-6.226563 8.160156l5.898437 129.679688h-31.265624l5.898437-129.679688c.171875-3.867188-2.449219-7.304688-6.226563-8.160156-32.855468-7.296875-56.183593-36.503906-56.039062-70.160156v-102.398438l4.929688.800781c3.679687.613281 7.375 1.09375 11.070312 1.597657v92c0 4.417968 3.582031 8 8 8h32c4.417969 0 8-3.582032 8-8v-88.160157c2.664062.058594 5.335938.167969 8 .167969s5.335938-.109375 8-.167969v88.160157c0 4.417968 3.582031 8 8 8h32c4.417969 0 8-3.582032 8-8v-91.945313c3.695312-.511719 7.390625-.988281 11.070312-1.597656l4.929688-.855469zm-112-16v-82.046876c5.332031.53125 10.667969.953126 16 1.261719v80.785157zm64 0v-80.785157c5.332031-.316406 10.667969-.738281 16-1.261719v82.046876zm113.9375-113.566407v-.015625l-73.496094 12.238282c-42.664062 7.128906-86.21875 7.128906-128.882812 0l-73.496094-12.253907c-30.035156-5.015625-50.320312-33.425781-45.308594-63.460937 4.433594-26.566406 27.414063-46.042969 54.351563-46.0625 3.042969.003906 6.082031.257812 9.085937.753906l52.738282 8.800781c44.40625 7.414063 89.734374 7.414063 134.140624 0l52.738282-8.800781c30.042968-5.007812 58.457031 15.292969 63.464844 45.335938 5.003906 30.042968-15.292969 58.457031-45.335938 63.464843zm86.0625-40.097656-24.710938-4.695313c.449219-3.179687.6875-6.386718.710938-9.601562-.027344-6-.8125-11.976562-2.34375-17.78125l26.34375-4.707031zm0 0" fill="#642f21" data-original="#000000" style="" class=""/><path xmlns="http://www.w3.org/2000/svg" d="m96 31.117188h16v16h-16zm0 0" fill="#642f21" data-original="#000000" style="" class=""/><path xmlns="http://www.w3.org/2000/svg" d="m112 87.117188h16v16h-16zm0 0" fill="#642f21" data-original="#000000" style="" class=""/><path xmlns="http://www.w3.org/2000/svg" d="m168 63.117188h16v16h-16zm0 0" fill="#642f21" data-original="#000000" style="" class=""/><path xmlns="http://www.w3.org/2000/svg" d="m360 95.117188h16v16h-16zm0 0" fill="#642f21" data-original="#000000" style="" class=""/><path xmlns="http://www.w3.org/2000/svg" d="m384 71.117188h16v16h-16zm0 0" fill="#642f21" data-original="#000000" style="" class=""/><path xmlns="http://www.w3.org/2000/svg" d="m368 39.117188h16v16h-16zm0 0" fill="#642f21" data-original="#000000" style="" class=""/></g></svg>
